<?xml version="1.0" standalone="no"?>
<!DOCTYPE svg PUBLIC "-//W3C//DTD SVG 20010904//EN"
 "http://www.w3.org/TR/2001/REC-SVG-20010904/DTD/svg10.dtd">
<svg version="1.0" xmlns="http://www.w3.org/2000/svg"
 width="700.000000pt" height="700.000000pt" viewBox="0 0 700.000000 700.000000"
 preserveAspectRatio="xMidYMid meet">
<metadata>
Created by potrace 1.11, written by Peter Selinger 2001-2013
</metadata>
<g transform="translate(0.000000,700.000000) scale(0.100000,-0.100000)"
fill="#000000" stroke="none">
<path d="M2 4668 l3 -2333 1156 -1 c635 0 1160 -3 1165 -6 5 -4 9 -464 8
-1167 l-1 -1161 1167 0 1167 0 0 1163 c0 639 -3 1164 -8 1167 -4 3 -529 5
-1166 4 l-1159 0 0 1163 c0 812 3 1163 10 1165 6 0 522 2 1146 4 624 1 1144 3
1156 3 l21 1 0 1165 0 1165 -2334 0 -2333 0 2 -2332z"/>
</g>
</svg>
